<svg width="79" height="79" viewBox="0 0 79 79" fill="none" xmlns="http://www.w3.org/2000/svg">
<path fill-rule="evenodd" clip-rule="evenodd" d="M39.5129 16.7331C46.6812 21.6196 53.1617 23.935 58.7164 23.3821C59.6872 44.4971 52.4352 56.9657 39.5836 62.2047C27.1755 57.3666 19.8336 45.4026 20.38 23.0987C26.9055 23.465 33.3088 21.9514 39.5129 16.7676V16.7331ZM48.6035 13.0699V16.0972C49.3493 16.4428 50.0886 16.7538 50.8215 17.0441V14.2795H53.3932C53.654 15.0528 54.16 15.7025 54.8223 16.1144C55.4846 16.5263 56.2608 16.6741 57.0144 16.5317C57.768 16.3894 58.4508 15.966 58.9428 15.336C59.4348 14.706 59.7045 13.9098 59.7045 13.0872C59.7045 12.2646 59.4348 11.4684 58.9428 10.8384C58.4508 10.2084 57.768 9.78504 57.0144 9.64268C56.2608 9.50032 55.4846 9.64809 54.8223 10.06C54.16 10.4719 53.654 11.1216 53.3932 11.8949H49.7093C49.5639 11.894 49.4197 11.9241 49.2851 11.9836C49.1506 12.043 49.0283 12.1305 48.9255 12.2411C48.8226 12.3517 48.7412 12.4831 48.686 12.6277C48.6307 12.7724 48.6027 12.9274 48.6035 13.0837V13.0699ZM4.01236e-06 25.2137C-0.000568803 24.5832 0.157404 23.9643 0.457206 23.4224C0.757009 22.8805 1.18749 22.4359 1.7031 22.1355C2.2187 21.8351 2.80026 21.6901 3.38622 21.7159C3.97219 21.7417 4.54077 21.9373 5.03179 22.282C5.52282 22.6268 5.91804 23.1078 6.17562 23.6742C6.4332 24.2406 6.54356 24.8713 6.49503 25.4997C6.4465 26.128 6.24088 26.7305 5.89993 27.2435C5.55898 27.7565 5.09538 28.1608 4.55819 28.4138V35.4014H16.349C16.4776 36.2101 16.6126 37.0049 16.7605 37.7859H3.4524C3.16412 37.7878 2.88668 37.6679 2.67985 37.452C2.47302 37.2361 2.35334 36.9415 2.3466 36.6317V28.5727C1.66928 28.3626 1.07396 27.9212 0.650615 27.3152C0.227269 26.7092 -0.00110393 25.9715 4.01236e-06 25.2137ZM8.94279 22.8914C8.95206 22.0292 9.25781 21.2013 9.80114 20.5671C10.3445 19.9329 11.0869 19.5373 11.8854 19.4566C12.6839 19.3759 13.4819 19.6158 14.1256 20.13C14.7694 20.6443 15.2133 21.3965 15.3718 22.2417C15.3718 22.6494 15.3718 23.0572 15.3718 23.465C15.2735 24.081 15.0247 24.6578 14.6507 25.1363C14.2768 25.6148 13.7912 25.9779 13.2438 26.1882V28.9529H15.6033C15.6611 29.7615 15.7319 30.5564 15.809 31.3374H12.1573C11.864 31.3374 11.5828 31.2121 11.3754 30.9892C11.168 30.7662 11.0515 30.4639 11.0515 30.1486V26.1606C10.4295 25.9156 9.89315 25.4701 9.51569 24.8849C9.13823 24.2997 8.93814 23.6035 8.94279 22.8914ZM0.0514363 44.5732C0.0535215 43.7526 0.323925 42.9589 0.815338 42.3311C1.30675 41.7032 1.98788 41.2811 2.73955 41.1386C3.49122 40.9961 4.26557 41.1422 4.92712 41.5515C5.58866 41.9608 6.09528 42.6071 6.35832 43.3774H18.1042C18.342 44.193 18.5992 44.9879 18.8628 45.762H6.35832C6.09548 46.5317 5.5894 47.1777 4.92852 47.5871C4.26763 47.9964 3.49396 48.1431 2.74269 48.0015C1.99142 47.8599 1.31032 47.439 0.818401 46.8123C0.326478 46.1857 0.0550123 45.3931 0.0514363 44.5732ZM7.07194 59.1222C7.07182 58.4131 7.27219 57.7207 7.6465 57.1368C8.02081 56.5529 8.55137 56.1052 9.16781 55.8529V51.2567C9.1678 51.0994 9.19682 50.9437 9.2532 50.7986C9.30957 50.6534 9.39217 50.5217 9.49622 50.4112C9.60027 50.3006 9.72369 50.2133 9.85934 50.1544C9.99499 50.0955 10.1402 50.0661 10.2865 50.0679H20.6051C20.9844 50.8904 21.3894 51.6852 21.8137 52.4593H11.3858V55.8184C11.9507 56.0279 12.451 56.4006 12.8319 56.8956C13.2127 57.3906 13.4593 57.9889 13.5447 58.6247C13.6301 59.2605 13.551 59.9093 13.316 60.4999C13.081 61.0906 12.6992 61.6002 12.2125 61.973C11.7258 62.3457 11.153 62.5671 10.557 62.6129C9.96097 62.6587 9.36472 62.5271 8.83367 62.2326C8.30261 61.9381 7.85727 61.4921 7.5465 60.9434C7.23573 60.3947 7.07154 59.7646 7.07194 59.1222ZM54.2611 79C54.8474 79.0013 55.4231 78.8323 55.9274 78.5107C56.4317 78.1892 56.8457 77.7271 57.1258 77.1733C57.4059 76.6195 57.5415 75.9947 57.5184 75.3649C57.4953 74.735 57.3143 74.1236 56.9945 73.5953C56.6747 73.067 56.2281 72.6414 55.7018 72.3636C55.1755 72.0857 54.5892 71.9659 54.0048 72.0169C53.4204 72.0679 52.8597 72.2877 52.382 72.6531C51.9042 73.0185 51.5272 73.5159 51.2909 74.0928H44.7911V65.467C44.071 65.8956 43.3317 66.3033 42.5731 66.6904V75.2885C42.5731 75.6038 42.6896 75.9061 42.897 76.1291C43.1043 76.352 43.3856 76.4773 43.6789 76.4773H51.143C51.3381 77.2043 51.7477 77.8435 52.3101 78.2985C52.8725 78.7535 53.5572 78.9997 54.2611 79ZM56.4277 69.3859C57.0247 69.3868 57.6105 69.2109 58.1207 68.8777C58.631 68.5444 59.0462 68.0666 59.3207 67.4966C59.5952 66.9266 59.7185 66.2864 59.6771 65.6461C59.6357 65.0057 59.4311 64.39 59.0859 63.8663C58.7406 63.3427 58.268 62.9312 57.7197 62.6771C57.1714 62.423 56.5687 62.336 55.9775 62.4256C55.3863 62.5153 54.8294 62.7781 54.3679 63.1853C53.9064 63.5926 53.5581 64.1285 53.361 64.7344H50.7894V60.9468C50.0736 61.6149 49.3343 62.2508 48.5714 62.8544V65.9301C48.5705 66.0865 48.5985 66.2415 48.6538 66.3861C48.7091 66.5308 48.7905 66.6622 48.8934 66.7728C48.9962 66.8833 49.1184 66.9709 49.253 67.0303C49.3875 67.0897 49.5317 67.1198 49.6772 67.1189H53.361C53.5889 67.7876 54.0033 68.3642 54.5476 68.77C55.0919 69.1758 55.7396 69.3909 56.4019 69.3859H56.4277ZM36.2598 78.9378C37.0247 78.9403 37.7658 78.6524 38.3526 78.1249C38.9393 77.5973 39.3339 76.864 39.4669 76.0542C39.5999 75.2444 39.4626 74.4102 39.0794 73.6985C38.6961 72.9869 38.0915 72.4436 37.372 72.1644V67.0913C36.6455 66.7388 35.874 66.3517 35.154 65.9578V72.1782C34.435 72.4572 33.8307 73 33.4474 73.7109C33.0641 74.4218 32.9264 75.2553 33.0585 76.0646C33.1907 76.874 33.5842 77.6072 34.1697 78.1353C34.7553 78.6634 35.4954 78.9525 36.2598 78.9516V78.9378ZM22.7588 71.3972C23.4159 71.3883 24.0551 71.1655 24.5922 70.7584C25.1293 70.3513 25.5391 69.7788 25.7676 69.1164H30.0429C30.3362 69.1128 30.6165 68.9854 30.8233 68.7617C31.0302 68.5381 31.147 68.236 31.1487 67.9207V63.3659C30.3836 62.7922 29.6443 62.2047 28.9307 61.5136V66.7388H25.7997C25.6049 66.1315 25.2582 65.5936 24.7977 65.1842C24.3373 64.7748 23.7808 64.5096 23.1894 64.4178C22.598 64.326 21.9944 64.4111 21.4451 64.6637C20.8957 64.9164 20.4216 65.3268 20.0749 65.8501C19.7282 66.3733 19.5222 66.989 19.4796 67.6298C19.437 68.2706 19.5594 68.9116 19.8334 69.4825C20.1073 70.0534 20.5222 70.5322 21.0326 70.8663C21.543 71.2004 22.1291 71.3769 22.7266 71.3765L22.7588 71.3972ZM79.0321 25.2137C79.0327 24.5832 78.8747 23.9643 78.5749 23.4224C78.2751 22.8805 77.8447 22.4359 77.3291 22.1355C76.8134 21.8351 76.2319 21.6901 75.6459 21.7159C75.06 21.7417 74.4914 21.9373 74.0004 22.282C73.5093 22.6268 73.1141 23.1078 72.8565 23.6742C72.599 24.2406 72.4886 24.8713 72.5371 25.4997C72.5857 26.128 72.7913 26.7305 73.1322 27.2435C73.4732 27.7565 73.9368 28.1608 74.474 28.4138V35.4014H63.0046C62.8888 36.2101 62.7538 37.0049 62.606 37.7859H75.5798C75.8624 37.7789 76.1318 37.655 76.3317 37.4401C76.5316 37.2251 76.6469 36.9356 76.6534 36.6317V28.5727C77.3307 28.3626 77.926 27.9212 78.3494 27.3152C78.7727 26.7092 79.0011 25.9715 79 25.2137H79.0321ZM70.0765 22.8914C70.0801 22.0668 69.812 21.2675 69.3198 20.6352C68.8276 20.0028 68.143 19.5782 67.3874 19.4366C66.6318 19.295 65.854 19.4456 65.1918 19.8616C64.5296 20.2776 64.0258 20.9322 63.7696 21.7095C63.5318 22.4979 63.5318 23.347 63.7696 24.1354C63.9338 24.6096 64.1911 25.0403 64.5239 25.398C64.8567 25.7558 65.2573 26.0324 65.6983 26.2089V28.9736H63.6475C63.596 29.7823 63.5382 30.5771 63.4675 31.3581H66.862C67.1553 31.3581 67.4365 31.2329 67.6439 31.0099C67.8513 30.787 67.9678 30.4846 67.9678 30.1693V26.1606C68.5897 25.9156 69.1261 25.4701 69.5036 24.8849C69.8811 24.2997 70.0812 23.6035 70.0765 22.8914ZM78.9486 44.5732C78.9425 43.7559 78.6704 42.9667 78.1794 42.3427C77.6885 41.7186 77.0098 41.2992 76.2611 41.1571C75.5125 41.015 74.7412 41.1593 74.0811 41.5649C73.4211 41.9705 72.9141 42.6118 72.6481 43.3774H61.2366C60.9923 44.193 60.7351 44.9879 60.4587 45.762H72.6481C72.911 46.5317 73.417 47.1777 74.0779 47.5871C74.7388 47.9964 75.5125 48.1431 76.2637 48.0015C77.015 47.8599 77.6961 47.439 78.188 46.8123C78.68 46.1857 78.9514 45.3931 78.955 44.5732H78.9486ZM71.9281 59.1222C71.9282 58.4131 71.7278 57.7207 71.3535 57.1368C70.9792 56.5529 70.4486 56.1052 69.8322 55.8529V51.2567C69.8322 51.1 69.8034 50.9449 69.7474 50.8002C69.6914 50.6555 69.6094 50.5241 69.506 50.4136C69.4027 50.3032 69.28 50.2157 69.1451 50.1564C69.0102 50.0971 68.8657 50.067 68.72 50.0679H58.6842C58.2921 50.8904 57.8742 51.6852 57.4434 52.4593H67.6142V55.8184C67.0493 56.0279 66.549 56.4006 66.1682 56.8956C65.7873 57.3906 65.5407 57.9889 65.4553 58.6247C65.3699 59.2605 65.449 59.9093 65.684 60.4999C65.919 61.0906 66.3008 61.6002 66.7875 61.973C67.2742 62.3457 67.847 62.5671 68.443 62.6129C69.039 62.6587 69.6353 62.5271 70.1663 62.2326C70.6974 61.9381 71.1427 61.4921 71.4535 60.9434C71.7643 60.3947 71.9285 59.7646 71.9281 59.1222ZM54.2611 1.52361e-05C54.8478 -0.00184637 55.4241 0.16692 55.9289 0.488439C56.4336 0.809958 56.8481 1.27226 57.1285 1.82638C57.4088 2.3805 57.5445 3.00582 57.5212 3.63609C57.4979 4.26636 57.3165 4.87813 56.9962 5.40661C56.6759 5.93508 56.2286 6.36058 55.7016 6.63805C55.1747 6.91551 54.5878 7.03461 54.0031 6.98272C53.4183 6.93084 52.8575 6.7099 52.3801 6.34332C51.9026 5.97674 51.5262 5.47815 51.2909 4.90037H44.7911V14.155C44.0582 13.7403 43.3189 13.3118 42.5731 12.8557V3.71156C42.5722 3.55519 42.6002 3.40019 42.6555 3.25555C42.7108 3.1109 42.7922 2.97948 42.8951 2.86891C42.9979 2.75834 43.1202 2.6708 43.2547 2.61139C43.3892 2.55197 43.5334 2.52185 43.6789 2.52276H51.143C51.3381 1.79573 51.7477 1.15656 52.3101 0.701544C52.8725 0.246531 53.5572 0.000324138 54.2611 1.52361e-05ZM36.2598 0.0553083C37.023 0.0575501 37.7613 0.348252 38.3453 0.876553C38.9293 1.40485 39.322 2.13711 39.4545 2.94521C39.5871 3.7533 39.4511 4.58578 39.0704 5.29698C38.6897 6.00819 38.0885 6.55283 37.372 6.83562V12.517C36.6305 13.0561 35.8912 13.5537 35.154 14.0099V6.83562C34.438 6.55305 33.8371 6.00898 33.4563 5.29849C33.0755 4.58799 32.9391 3.75625 33.0708 2.94859C33.2025 2.14092 33.594 1.4087 34.1769 0.879846C34.7598 0.350996 35.497 0.0591528 36.2598 0.0553083ZM22.7266 7.60281C23.3862 7.60268 24.0303 7.8181 24.5734 8.2205C25.1165 8.62291 25.5329 9.19329 25.7676 9.85601H30.0429C30.3373 9.85965 30.6186 9.98796 30.8256 10.2131C31.0326 10.4382 31.1487 10.7421 31.1487 11.0586V16.1387C30.4093 16.4704 29.67 16.7676 28.9242 17.0303V12.2405H25.7997C25.6049 12.8478 25.2582 13.3857 24.7977 13.7951C24.3373 14.2045 23.7808 14.4697 23.1894 14.5615C22.598 14.6533 21.9944 14.5682 21.4451 14.3156C20.8957 14.0629 20.4216 13.6525 20.0749 13.1292C19.7282 12.606 19.5222 11.9902 19.4796 11.3495C19.437 10.7087 19.5594 10.0677 19.8334 9.49678C20.1073 8.92586 20.5222 8.44709 21.0326 8.11299C21.543 7.7789 22.1291 7.60238 22.7266 7.60281ZM32.3702 34.648H33.0838V33.2312C33.0807 31.3391 33.7579 29.5189 34.974 28.1511C35.5616 27.4747 36.2723 26.9354 37.062 26.5667C37.8516 26.198 38.7034 26.0077 39.5643 26.0077C40.4252 26.0077 41.2769 26.198 42.0666 26.5667C42.8563 26.9354 43.567 27.4747 44.1546 28.1511C45.3707 29.5189 46.0479 31.3391 46.0448 33.2312V34.648H46.7584C47.0392 34.6499 47.308 34.7706 47.5066 34.9841C47.7052 35.1976 47.8175 35.4866 47.8192 35.7885V47.8009C47.8175 48.1022 47.705 48.3904 47.5062 48.6028C47.3075 48.8152 47.0386 48.9344 46.7584 48.9344H32.3831C32.1028 48.9344 31.834 48.8152 31.6352 48.6028C31.4365 48.3904 31.324 48.1022 31.3223 47.8009V35.7885C31.324 35.4866 31.4363 35.1976 31.6348 34.9841C31.8334 34.7706 32.1022 34.6499 32.3831 34.648H32.3702ZM38.6964 42.32L37.5584 45.5339H41.5702L40.5029 42.2785C40.9224 42.0475 41.2567 41.6705 41.4511 41.2089C41.6455 40.7473 41.6885 40.2285 41.5732 39.7372C41.4578 39.246 41.1909 38.8113 40.8161 38.5041C40.4412 38.197 39.9806 38.0357 39.5094 38.0464C39.0382 38.0571 38.5843 38.2394 38.2219 38.5633C37.8594 38.8872 37.6099 39.3337 37.514 39.8298C37.4182 40.3259 37.4816 40.8422 37.6941 41.2945C37.9065 41.7468 38.2553 42.1083 38.6835 42.32H38.6964ZM35.1025 34.648H44.0518V33.2312C44.0572 31.8945 43.5828 30.6071 42.7274 29.6371C42.3243 29.1725 41.8367 28.802 41.2947 28.5486C40.7528 28.2953 40.1681 28.1646 39.5772 28.1646C38.9862 28.1646 38.4015 28.2953 37.8596 28.5486C37.3176 28.802 36.83 29.1725 36.4269 29.6371C35.5715 30.6071 35.0971 31.8945 35.1025 33.2312V34.648Z" fill="white"/>
</svg>
