<svg width="143" height="50" viewBox="0 0 143 50" fill="none" xmlns="http://www.w3.org/2000/svg">
<rect width="143" height="50" rx="25" fill="#737272"/>
<path d="M18.3101 20.672V29H21.2261C22.4861 29 23.5061 28.604 24.3101 27.824C25.1141 27.044 25.5101 26.048 25.5101 24.824C25.5101 23.612 25.1141 22.616 24.3101 21.836C23.5061 21.056 22.4861 20.672 21.2261 20.672H18.3101ZM19.9781 27.524V22.136H21.2021C21.9701 22.136 22.5941 22.388 23.0861 22.88C23.5661 23.384 23.8061 24.032 23.8061 24.812C23.8061 25.616 23.5661 26.264 23.0861 26.768C22.5941 27.272 21.9701 27.524 21.2021 27.524H19.9781ZM31.1036 24.02C30.5876 23.312 29.8916 22.952 29.0156 22.952C28.2356 22.952 27.5876 23.24 27.0836 23.816C26.5676 24.404 26.3156 25.136 26.3156 26.036C26.3156 26.936 26.5676 27.668 27.0836 28.244C27.5876 28.82 28.2356 29.108 29.0156 29.108C29.8916 29.108 30.5876 28.748 31.1036 28.04V29H32.6756V23.072H31.1036V24.02ZM28.3796 27.26C28.0796 26.936 27.9236 26.528 27.9236 26.036C27.9236 25.028 28.5956 24.308 29.5196 24.308C30.4436 24.308 31.1036 25.028 31.1036 26.036C31.1036 26.528 30.9596 26.936 30.6596 27.26C30.3596 27.584 29.9876 27.752 29.5196 27.752C29.0516 27.752 28.6796 27.584 28.3796 27.26ZM35.6528 23.072H34.0928V29H35.6528V26.144C35.6528 25.088 36.4928 24.44 37.8008 24.44V22.88C36.8288 22.88 36.0728 23.432 35.6528 24.392V23.072ZM42.3959 23.072L40.1879 25.652V20.672H38.6279V29H40.1879V26.156L42.3959 29H44.2439L41.7479 25.892L44.2439 23.072H42.3959ZM53.3049 26.804L51.1089 20.672H48.6969V29H50.3649V22.736L52.5849 29H54.0129L56.2449 22.736V29H57.9129V20.672H55.5009L53.3049 26.804ZM60.0284 23.816C59.4164 24.404 59.1164 25.136 59.1164 26.036C59.1164 26.936 59.4164 27.668 60.0284 28.244C60.6284 28.82 61.3964 29.108 62.3204 29.108C63.2444 29.108 64.0124 28.82 64.6124 28.244C65.2124 27.668 65.5124 26.936 65.5124 26.036C65.5124 25.136 65.2124 24.404 64.6124 23.816C64.0124 23.24 63.2444 22.952 62.3204 22.952C61.3964 22.952 60.6284 23.24 60.0284 23.816ZM63.4604 24.788C63.7604 25.112 63.9044 25.532 63.9044 26.036C63.9044 27.032 63.2324 27.752 62.3084 27.752C61.3844 27.752 60.7244 27.032 60.7244 26.036C60.7244 25.532 60.8684 25.112 61.1684 24.788C61.4684 24.464 61.8404 24.308 62.3084 24.308C62.7764 24.308 63.1604 24.464 63.4604 24.788ZM71.0646 24.02C70.5486 23.312 69.8526 22.952 68.9766 22.952C68.1966 22.952 67.5486 23.24 67.0446 23.816C66.5286 24.404 66.2766 25.136 66.2766 26.036C66.2766 26.936 66.5286 27.668 67.0446 28.244C67.5486 28.82 68.1966 29.108 68.9766 29.108C69.8526 29.108 70.5486 28.748 71.0646 28.04V29H72.6366V20.672H71.0646V24.02ZM68.3406 27.26C68.0406 26.936 67.8846 26.528 67.8846 26.036C67.8846 25.028 68.5566 24.308 69.4806 24.308C70.4046 24.308 71.0646 25.028 71.0646 26.036C71.0646 26.528 70.9206 26.936 70.6206 27.26C70.3206 27.584 69.9486 27.752 69.4806 27.752C69.0126 27.752 68.6406 27.584 68.3406 27.26ZM80.1257 26.048C80.1137 25.148 79.8137 24.404 79.2137 23.816C78.6137 23.24 77.8577 22.952 76.9337 22.952C76.0097 22.952 75.2417 23.24 74.6417 23.816C74.0297 24.404 73.7297 25.136 73.7297 26.036C73.7297 26.936 74.0297 27.668 74.6417 28.244C75.2417 28.82 76.0097 29.108 76.9337 29.108C77.6657 29.108 78.3257 28.904 78.9017 28.484C79.4777 28.064 79.8497 27.536 80.0177 26.888H78.4457C78.2177 27.428 77.6297 27.836 76.9457 27.836C76.1297 27.836 75.4817 27.296 75.2897 26.516H80.0777C80.1137 26.384 80.1257 26.228 80.1257 26.048ZM76.9457 24.224C77.7017 24.224 78.3617 24.668 78.6017 25.328H75.3497C75.6017 24.656 76.2137 24.224 76.9457 24.224Z" fill="white"/>
<circle cx="118" cy="25" r="20" fill="white"/>
<path d="M117.578 35.9167C116.12 35.9167 114.753 35.6389 113.477 35.0833C112.201 34.5278 111.089 33.7769 110.143 32.8307C109.197 31.8845 108.446 30.7734 107.891 29.4974C107.335 28.2213 107.057 26.8542 107.057 25.3958C107.057 22.8611 107.865 20.6259 109.479 18.6901C111.094 16.7543 113.151 15.5521 115.651 15.0833C115.339 16.7847 115.434 18.4557 115.938 20.0963C116.441 21.737 117.309 23.1736 118.542 24.4062C119.774 25.6389 121.211 26.5113 122.852 27.0234C124.492 27.5356 126.172 27.6354 127.891 27.3229C127.439 29.8229 126.241 31.8802 124.297 33.4948C122.353 35.1094 120.113 35.9167 117.578 35.9167ZM124.375 22.1667L123.281 19.7187L120.833 18.625L123.281 17.5312L124.375 15.0833L125.469 17.5312L127.917 18.625L125.469 19.7187L124.375 22.1667Z" fill="black"/>
</svg>
