<svg width="79" height="79" viewBox="0 0 79 79" fill="none" xmlns="http://www.w3.org/2000/svg">
<path d="M76.7166 18.3877L44.8962 1.34157C41.5884 -0.430833 37.4103 -0.430833 34.1025 1.34157L2.28335 18.3877C0.875371 19.1433 0 20.6061 0 22.2039V22.4206C0 24.8058 1.9406 26.7464 4.32716 26.7464C5.03944 26.7464 5.74789 26.5681 6.37989 26.2304L37.7072 9.36007C38.8068 8.77012 40.1944 8.77012 41.2915 9.36007L72.6227 26.2304C73.2521 26.5681 73.9618 26.7464 74.6728 26.7464C77.0594 26.7464 79 24.8058 79 22.4193V22.2027C79 20.6061 78.1246 19.1433 76.7166 18.3877ZM76.4516 22.4193C76.4516 23.4004 75.654 24.1981 74.6728 24.1981C74.3798 24.1981 74.0867 24.1242 73.8293 23.9853L42.4995 7.11494C41.5795 6.62056 40.5423 6.35935 39.5 6.35935C38.4577 6.35935 37.4205 6.62056 36.4993 7.11494L5.17323 23.9853C4.91202 24.1242 4.62023 24.1981 4.32716 24.1981C3.34603 24.1981 2.54839 23.4004 2.54839 22.4193V22.2027C2.54839 21.5452 2.90771 20.945 3.48747 20.6354L35.3079 3.58925C37.8767 2.21057 41.1233 2.21057 43.6921 3.58925L75.5125 20.6354C76.0923 20.945 76.4516 21.5465 76.4516 22.2039V22.4193Z" fill="white"/>
<path d="M7.64516 29.2945H5.09677V70.0687H28.0323V67.5203H7.64516V29.2945Z" fill="white"/>
<path d="M71.3548 67.5203H50.9677V70.0687H73.9032V29.2945H71.3548V67.5203Z" fill="white"/>
<path d="M22.9355 37.6023V62.4235H56.0645V31.8429H30.1334L22.9355 37.6023ZM53.5161 34.3913V59.8752H25.4839V38.8255L31.0279 34.3913H53.5161Z" fill="white"/>
<path d="M45.871 42.0364H43.3226V52.23H45.871V42.0364Z" fill="white"/>
<path d="M35.6774 49.6816H38.2258V52.23H40.7742V42.0364H33.129V52.23H35.6774V49.6816ZM35.6774 44.5848H38.2258V47.1332H35.6774V44.5848Z" fill="white"/>
<path d="M33.129 21.6494H30.5807V29.2945H33.129V21.6494Z" fill="white"/>
<path d="M33.129 16.5526H30.5807V19.101H33.129V16.5526Z" fill="white"/>
<path d="M38.2258 21.6494H35.6774V29.2945H38.2258V21.6494Z" fill="white"/>
<path d="M38.2258 16.5526H35.6774V19.101H38.2258V16.5526Z" fill="white"/>
<path d="M48.4194 21.6494H45.871V29.2945H48.4194V21.6494Z" fill="white"/>
<path d="M48.4194 16.5526H45.871V19.101H48.4194V16.5526Z" fill="white"/>
<path d="M43.3226 21.6494H40.7742V29.2945H43.3226V21.6494Z" fill="white"/>
<path d="M43.3226 16.5526H40.7742V19.101H43.3226V16.5526Z" fill="white"/>
<path d="M20.3871 53.5042H15.2903V56.0526H20.3871V53.5042Z" fill="white"/>
<path d="M12.7419 53.5042H10.1935V56.0526H12.7419V53.5042Z" fill="white"/>
<path d="M20.3871 48.4074H15.2903V50.9558H20.3871V48.4074Z" fill="white"/>
<path d="M12.7419 48.4074H10.1935V50.9558H12.7419V48.4074Z" fill="white"/>
<path d="M20.3871 38.2139H15.2903V40.7623H20.3871V38.2139Z" fill="white"/>
<path d="M12.7419 38.2139H10.1935V40.7623H12.7419V38.2139Z" fill="white"/>
<path d="M20.3871 43.3107H15.2903V45.8591H20.3871V43.3107Z" fill="white"/>
<path d="M12.7419 43.3107H10.1935V45.8591H12.7419V43.3107Z" fill="white"/>
<path d="M48.4194 64.9719H45.871V73.8913H48.4194V64.9719Z" fill="white"/>
<path d="M48.4194 76.4397H45.871V78.9881H48.4194V76.4397Z" fill="white"/>
<path d="M43.3226 64.9719H40.7742V73.8913H43.3226V64.9719Z" fill="white"/>
<path d="M43.3226 76.4397H40.7742V78.9881H43.3226V76.4397Z" fill="white"/>
<path d="M33.129 64.9719H30.5807V73.8913H33.129V64.9719Z" fill="white"/>
<path d="M33.129 76.4397H30.5807V78.9881H33.129V76.4397Z" fill="white"/>
<path d="M38.2258 64.9719H35.6774V73.8913H38.2258V64.9719Z" fill="white"/>
<path d="M38.2258 76.4397H35.6774V78.9881H38.2258V76.4397Z" fill="white"/>
<path d="M63.7097 38.2139H58.6129V40.7623H63.7097V38.2139Z" fill="white"/>
<path d="M68.8064 38.2139H66.2581V40.7623H68.8064V38.2139Z" fill="white"/>
<path d="M63.7097 43.3107H58.6129V45.8591H63.7097V43.3107Z" fill="white"/>
<path d="M68.8064 43.3107H66.2581V45.8591H68.8064V43.3107Z" fill="white"/>
<path d="M63.7097 53.5042H58.6129V56.0526H63.7097V53.5042Z" fill="white"/>
<path d="M68.8064 53.5042H66.2581V56.0526H68.8064V53.5042Z" fill="white"/>
<path d="M63.7097 48.4074H58.6129V50.9558H63.7097V48.4074Z" fill="white"/>
<path d="M68.8064 48.4074H66.2581V50.9558H68.8064V48.4074Z" fill="white"/>
<path d="M50.9677 45.859H48.4193V48.4074H50.9677V45.859Z" fill="white"/>
<path d="M30.5806 45.859H28.0323V48.4074H30.5806V45.859Z" fill="white"/>
</svg>
