<svg width="79" height="79" viewBox="0 0 79 79" fill="none" xmlns="http://www.w3.org/2000/svg">
<path fill-rule="evenodd" clip-rule="evenodd" d="M58.4059 45.5304C62.8816 45.5304 66.9362 47.1698 69.8772 49.8057C72.8182 52.4545 74.6242 56.0933 74.6242 60.1372C74.6242 63.0817 73.6462 65.8333 71.983 68.1285L79 75.014L74.1602 79L67.3931 72.2945C64.8233 73.8375 61.7324 74.7376 58.413 74.7376C53.9373 74.7376 49.8827 73.0981 46.9489 70.4622C44.0079 67.8135 42.2019 64.1746 42.2019 60.1372C42.2019 56.1062 44.0221 52.4545 46.9489 49.8057C49.8756 47.157 53.923 45.5304 58.4059 45.5304ZM4.1331 26.269V56.5434C4.1331 56.717 4.20448 56.8777 4.32583 56.987C4.44719 57.0963 4.61851 57.167 4.81838 57.167H35.1777C37.2693 57.3599 37.3335 60.6194 35.1777 60.9023H15.7472V67.8456C15.7472 68.0256 15.8186 68.1799 15.947 68.2892C16.0684 68.3985 16.2397 68.4628 16.4396 68.4628H35.1849C36.6982 68.6171 37.1907 71.7159 35.1849 72.1981H16.461C15.1333 72.1981 13.9055 71.7095 13.0489 70.9123C12.1637 70.1151 11.6212 69.035 11.6212 67.8392V60.8958H4.83979C3.51206 60.8958 2.28427 60.4072 1.42767 59.61C0.542514 58.8128 0 57.7328 0 56.537V4.35889C0.00713834 3.16309 0.549652 2.05729 1.43481 1.28581C2.31996 0.488607 3.5192 0 4.84693 0H55.7576C57.0853 0 58.3131 0.488607 59.1697 1.27938C60.0548 2.07658 60.5902 3.16309 60.5902 4.35246V11.2958H67.3716C68.6994 11.2958 69.9272 11.7844 70.7838 12.5752C71.6689 13.3724 72.2114 14.4589 72.2114 15.6483V39.455C72.0687 40.818 68.3496 40.8372 68.0355 39.455V15.6611C68.0355 15.4811 67.9641 15.3268 67.8428 15.2175C67.7214 15.1082 67.5501 15.0375 67.3502 15.0375H60.5688V39.4614C60.2047 40.6958 57.1138 40.8822 56.4214 39.4614V26.269H4.1331ZM4.1331 22.8295H56.4214V4.35889C56.4214 4.17887 56.35 4.02458 56.2216 3.91528C56.1002 3.80599 55.9289 3.73527 55.729 3.73527H4.81838C4.61851 3.73527 4.44719 3.79956 4.32583 3.91528C4.20448 4.02458 4.1331 4.17887 4.1331 4.35889V22.8295ZM27.8181 13.8481H31.1874C31.3659 13.8481 31.4872 13.9574 31.4872 14.1182V20.8429C31.4872 21.0037 31.3659 21.113 31.1874 21.113H27.8181C27.6396 21.113 27.5183 21.0037 27.5183 20.8429V14.1182C27.5183 14.0153 27.6396 13.8481 27.8181 13.8481ZM44.4219 13.8481H47.7912C47.9696 13.8481 48.091 13.9574 48.091 14.1182V20.8429C48.091 21.0037 47.9696 21.113 47.7912 21.113H44.4219C44.2434 21.113 44.1221 21.0037 44.1221 20.8429V14.1182C44.1221 14.0153 44.2434 13.8481 44.4219 13.8481ZM36.12 8.15845H39.4893C39.6749 8.15845 39.7891 8.26774 39.7891 8.42847V20.8944C39.7891 21.0551 39.6677 21.1644 39.4893 21.1644H36.12C35.9415 21.1644 35.8202 21.0551 35.8202 20.8944V8.42847C35.8202 8.26774 35.9415 8.15845 36.12 8.15845ZM11.2215 10.2157H14.5908C14.7692 10.2157 14.8906 10.325 14.8906 10.4858V20.8944C14.8906 21.0551 14.7692 21.1644 14.5908 21.1644H11.2215C11.043 21.1644 10.9217 21.0551 10.9217 20.8944V10.4922C10.8646 10.325 11.043 10.2157 11.2215 10.2157ZM19.5162 8.15845H22.8855C23.064 8.15845 23.1853 8.26774 23.1853 8.42847V20.8944C23.1853 21.0551 23.064 21.1644 22.8855 21.1644H19.5162C19.3378 21.1644 19.2164 21.0551 19.2164 20.8944V8.42847C19.2164 8.26774 19.3378 8.15845 19.5162 8.15845ZM30.4807 43.1903L39.8676 43.3381C39.8676 46.3726 38.2115 49.1564 35.449 50.8473L30.4807 43.1903ZM29.9667 40.6058L29.8597 30.7565V30.1072L30.5806 30.1586C31.4658 30.21 32.351 30.3579 33.179 30.5572C34.007 30.7565 34.778 31.0522 35.5561 31.3994C39.3679 33.1931 42.0163 36.7741 42.2375 40.8501L42.2947 41.4994H41.5737L30.6949 41.2037H30.0881L29.9667 40.6058ZM31.1803 31.348L31.2873 40.0079L40.8456 40.2586C40.4601 36.877 38.1401 33.9389 34.935 32.4023C34.2712 32.1002 33.5573 31.8494 32.8364 31.6501C32.2296 31.5473 31.7299 31.4508 31.1803 31.348ZM27.3327 42.3095L32.6936 50.6672C31.0375 51.5159 29.2172 51.9595 27.3327 51.9595C21.4222 51.9595 16.6181 47.6327 16.6181 42.3031C16.6181 37.1277 21.1509 32.8524 26.8901 32.6531L27.3327 42.3095ZM67.029 52.3645C64.8233 50.3779 61.7752 49.1436 58.4059 49.1436C55.0437 49.1436 51.9885 50.3779 49.7828 52.3645C47.577 54.3511 46.2065 57.0963 46.2065 60.1308C46.2065 63.1589 47.577 65.9105 49.7828 67.8971C51.9885 69.8836 55.0366 71.118 58.4059 71.118C61.768 71.118 64.8233 69.8836 67.029 67.8971C69.2347 65.9105 70.6053 63.1589 70.6053 60.1308C70.6053 57.1027 69.2347 54.3511 67.029 52.3645Z" fill="white"/>
</svg>
