<svg width="79" height="79" viewBox="0 0 79 79" fill="none" xmlns="http://www.w3.org/2000/svg">
<g clip-path="url(#clip0_117_553)">
<path fill-rule="evenodd" clip-rule="evenodd" d="M39.5062 0C43.6305 0 47.1342 4.68677 49.4701 12.2602C50.2803 14.8896 50.9738 17.892 51.5213 21.1772C55.025 19.9557 58.3244 18.9849 61.3099 18.2842C69.9161 16.2783 76.274 16.6126 78.3398 19.7564C80.3982 22.9002 77.5441 27.9149 71.2665 33.476C69.0913 35.4047 66.4853 37.4363 63.5217 39.5C64.7042 40.3229 65.8357 41.1458 66.9014 41.9559C65.9306 42.5538 65.1349 43.3446 64.5801 44.2703C63.3538 43.3381 62.0399 42.3931 60.653 41.4351C60.3683 41.6216 60.0763 41.808 59.7843 42.0009C59.1566 45.9805 57.0543 49.5422 53.9812 52.2488L53.806 52.3902C53.2659 52.8531 52.7038 53.2903 52.1125 53.6953C52.076 54.0168 52.0322 54.3382 51.9884 54.6597C55.6601 55.9712 59.1055 56.9998 62.2005 57.7199C69.2153 59.3529 74.1279 59.475 75.2959 57.7006C75.9163 56.7555 75.4784 55.2704 74.1717 53.406C75.2302 53.001 76.1645 52.3838 76.9091 51.6187C79.0186 54.6597 79.6099 57.302 78.3398 59.2371C76.2813 62.3874 69.9307 62.7217 61.3172 60.7158C58.3317 60.0215 55.0323 59.0443 51.5213 57.8228C50.9738 61.108 50.2803 64.1104 49.4701 66.7398C47.1342 74.3132 43.6305 79 39.5062 79C35.382 79 31.8782 74.3132 29.5424 66.7398C28.7321 64.1104 28.0387 61.108 27.4912 57.8228C26.2211 58.2664 24.9801 58.6778 23.7757 59.0507C23.6808 57.9771 23.294 56.9806 22.6881 56.1126C24.0896 55.6755 25.5349 55.1933 27.024 54.6597C26.9802 54.3446 26.9437 54.0232 26.8999 53.7017C26.2503 53.2517 25.6298 52.7695 25.0458 52.2552L25.0312 52.2424C21.9581 49.5357 19.8559 45.974 19.2281 41.9945C18.9361 41.808 18.6441 41.6152 18.3595 41.4287C15.228 43.576 12.4906 45.6912 10.2351 47.6906C5.1108 52.2424 2.53407 55.9326 3.70199 57.7135C4.35165 58.7035 6.16194 59.1021 8.84817 58.98C8.82627 59.1729 8.81897 59.3722 8.81897 59.5715C8.81897 60.4137 9.00146 61.2173 9.32264 61.9566C5.03781 62.1238 1.9793 61.2623 0.665385 59.2564C-1.39309 56.1062 1.46103 51.0916 7.73864 45.5304C9.9212 43.6017 12.5198 41.5702 15.4834 39.5064C12.5271 37.4427 9.9212 35.4111 7.73864 33.4824C1.46103 27.9213 -1.39309 22.9067 0.665385 19.7629C2.73115 16.6191 9.08175 16.2848 17.6952 18.2906C20.6807 18.9849 23.9801 19.9557 27.4912 21.1837C27.6883 19.9943 27.9073 18.8435 28.1408 17.7377C29.1555 18.1877 30.2942 18.4385 31.5059 18.4385H31.5716C31.3015 19.705 31.0607 21.0358 30.8417 22.4116C31.1702 22.5338 31.4913 22.6624 31.8198 22.7909C34.1922 21.9423 36.7835 21.473 39.4989 21.473C42.2144 21.473 44.813 21.9423 47.1853 22.7845C47.5065 22.6559 47.835 22.5338 48.1562 22.4116C47.6087 18.9464 46.9007 15.8026 46.0612 13.0831C44.1633 6.92407 41.8275 3.11165 39.4989 3.11165C38.2069 3.11165 36.9076 4.28817 35.6886 6.38403C34.7469 5.82471 33.6593 5.44539 32.4768 5.31038C34.4695 1.92228 36.8565 0 39.5062 0ZM39.5062 29.0592C44.6597 29.0592 48.8423 30.7822 48.8423 32.9038C48.8423 35.0318 44.6597 36.7484 39.5062 36.7484C34.3528 36.7484 30.1701 35.0254 30.1701 32.9038C30.1701 30.7822 34.3528 29.0592 39.5062 29.0592ZM30.1701 43.486V46.4369C31.8344 51.6316 48.2365 50.6287 48.8423 46.1733V43.2224C48.0248 48.1149 31.484 48.4685 30.1701 43.486ZM30.1263 34.7554V37.642C31.7906 42.7145 48.2876 42.033 48.8934 37.6806V34.8004C48.0686 39.5772 31.4402 39.6222 30.1263 34.7554ZM30.1263 39.005V41.9559C31.7906 47.1506 48.2876 46.4498 48.8934 41.9945V39.0435C48.0686 43.936 31.4402 43.9875 30.1263 39.005ZM39.5062 24.051C49.1927 24.051 57.047 30.9687 57.047 39.5C57.047 48.0313 49.1927 54.949 39.5062 54.949C29.8197 54.949 21.9654 48.0313 21.9654 39.5C21.9654 30.9687 29.8197 24.051 39.5062 24.051ZM52.1125 25.2918C52.7695 25.7419 53.3972 26.2305 53.9812 26.7512C57.0543 29.4578 59.1566 33.026 59.7843 37.0055C60.0763 37.192 60.3683 37.3784 60.653 37.5713C63.7845 35.424 66.5218 33.3088 68.7774 31.3094C73.8871 26.7769 76.4638 23.0867 75.3032 21.3058C74.1352 19.5314 69.2226 19.6536 62.2078 21.2865C59.1128 22.0066 55.6674 23.0352 51.9957 24.3532C52.0322 24.6554 52.076 24.9768 52.1125 25.2918ZM47.1634 56.2284C44.7984 57.0706 42.2144 57.5334 39.5135 57.5334C36.8054 57.5334 34.2214 57.0706 31.8563 56.2219C31.5205 56.3505 31.1848 56.4855 30.849 56.6077C31.3964 60.0729 32.1045 63.2167 32.9439 65.9362C34.8418 72.0952 37.1777 75.9076 39.5135 75.9076C41.8421 75.9076 44.1852 72.0952 46.0758 65.9362C46.908 63.2167 47.616 60.0665 48.1635 56.6077C47.8277 56.4855 47.4919 56.3569 47.1634 56.2284ZM19.2354 36.9927C19.8632 33.0195 21.9654 29.4514 25.0385 26.7512L25.2137 26.6098C25.7466 26.1533 26.3087 25.7161 26.8926 25.3111C26.9291 24.9897 26.9729 24.6682 27.0167 24.3468C23.3377 23.0352 19.8997 22.0066 16.8047 21.2801C9.78981 19.6471 4.87722 19.525 3.70929 21.2994C2.53407 23.0802 5.1108 26.7705 10.2278 31.303C12.4833 33.3024 15.2207 35.4176 18.3522 37.5649C18.6441 37.372 18.9361 37.1855 19.2354 36.9927ZM70.6607 42.9138C73.3396 42.9138 75.5148 44.8297 75.5148 47.1891C75.5148 49.5486 73.3396 51.4644 70.6607 51.4644C67.9817 51.4644 65.8065 49.5486 65.8065 47.1891C65.8065 44.8297 67.9744 42.9138 70.6607 42.9138ZM16.3156 55.1611C18.9945 55.1611 21.1698 57.077 21.1698 59.4364C21.1698 61.7959 18.9945 63.7118 16.3156 63.7118C13.6367 63.7118 11.4614 61.7959 11.4614 59.4364C11.4614 57.077 13.6367 55.1611 16.3156 55.1611ZM31.4986 7.56055C34.1776 7.56055 36.3528 9.4764 36.3528 11.8359C36.3528 14.1953 34.1776 16.1112 31.4986 16.1112C28.8197 16.1112 26.6444 14.1953 26.6444 11.8359C26.6444 9.4764 28.8197 7.56055 31.4986 7.56055Z" fill="white"/>
</g>
<defs>
<clipPath id="clip0_117_553">
<rect width="79" height="79" fill="white"/>
</clipPath>
</defs>
</svg>
