<svg width="79" height="79" viewBox="0 0 79 79" fill="none" xmlns="http://www.w3.org/2000/svg">
<g clip-path="url(#clip0_1_41)">
<path d="M76.7166 18.3877L44.8962 1.34151C41.5884 -0.430894 37.4103 -0.430894 34.1025 1.34151L2.28335 18.3877C0.875371 19.1433 0 20.606 0 22.2039V22.4205C0 24.8058 1.9406 26.7464 4.32716 26.7464C5.03944 26.7464 5.74789 26.568 6.37989 26.2303L37.7072 9.36001C38.8068 8.77006 40.1944 8.77006 41.2915 9.36001L72.6227 26.2303C73.2521 26.568 73.9618 26.7464 74.6728 26.7464C77.0594 26.7464 79 24.8058 79 22.4192V22.2026C79 20.606 78.1246 19.1433 76.7166 18.3877ZM76.4516 22.4192C76.4516 23.4004 75.654 24.198 74.6728 24.198C74.3798 24.198 74.0867 24.1241 73.8293 23.9852L42.4995 7.11488C41.5795 6.62049 40.5423 6.35928 39.5 6.35928C38.4577 6.35928 37.4205 6.62049 36.4993 7.11488L5.17323 23.9852C4.91202 24.1241 4.62023 24.198 4.32716 24.198C3.34603 24.198 2.54839 23.4004 2.54839 22.4192V22.2026C2.54839 21.5451 2.90771 20.945 3.48747 20.6354L35.3079 3.58919C37.8767 2.21051 41.1233 2.21051 43.6921 3.58919L75.5125 20.6354C76.0923 20.945 76.4516 21.5464 76.4516 22.2039V22.4192Z" fill="white"/>
<path d="M7.64519 29.2944H5.0968V70.0686H28.0323V67.5202H7.64519V29.2944Z" fill="white"/>
<path d="M71.3549 67.5202H50.9678V70.0686H73.9033V29.2944H71.3549V67.5202Z" fill="white"/>
<path d="M22.9354 37.6023V62.4235H56.0645V31.8429H30.1333L22.9354 37.6023ZM53.5161 34.3913V59.8752H25.4838V38.8255L31.0278 34.3913H53.5161Z" fill="white"/>
<path d="M45.871 42.0364H43.3226V52.2299H45.871V42.0364Z" fill="white"/>
<path d="M35.6774 49.6815H38.2258V52.2299H40.7742V42.0364H33.129V52.2299H35.6774V49.6815ZM35.6774 44.5848H38.2258V47.1332H35.6774V44.5848Z" fill="white"/>
<path d="M33.1291 21.6493H30.5807V29.2945H33.1291V21.6493Z" fill="white"/>
<path d="M33.1291 16.5525H30.5807V19.1009H33.1291V16.5525Z" fill="white"/>
<path d="M38.2258 21.6493H35.6774V29.2945H38.2258V21.6493Z" fill="white"/>
<path d="M38.2258 16.5525H35.6774V19.1009H38.2258V16.5525Z" fill="white"/>
<path d="M48.4194 21.6493H45.871V29.2945H48.4194V21.6493Z" fill="white"/>
<path d="M48.4194 16.5525H45.871V19.1009H48.4194V16.5525Z" fill="white"/>
<path d="M43.3226 21.6493H40.7742V29.2945H43.3226V21.6493Z" fill="white"/>
<path d="M43.3226 16.5525H40.7742V19.1009H43.3226V16.5525Z" fill="white"/>
<path d="M20.3871 53.5042H15.2903V56.0525H20.3871V53.5042Z" fill="white"/>
<path d="M12.742 53.5042H10.1936V56.0525H12.742V53.5042Z" fill="white"/>
<path d="M20.3871 48.4073H15.2903V50.9557H20.3871V48.4073Z" fill="white"/>
<path d="M12.742 48.4073H10.1936V50.9557H12.742V48.4073Z" fill="white"/>
<path d="M20.3871 38.2139H15.2903V40.7623H20.3871V38.2139Z" fill="white"/>
<path d="M12.742 38.2139H10.1936V40.7623H12.742V38.2139Z" fill="white"/>
<path d="M20.3871 43.3105H15.2903V45.8589H20.3871V43.3105Z" fill="white"/>
<path d="M12.742 43.3105H10.1936V45.8589H12.742V43.3105Z" fill="white"/>
<path d="M48.4194 64.9719H45.871V73.8913H48.4194V64.9719Z" fill="white"/>
<path d="M48.4194 76.4396H45.871V78.988H48.4194V76.4396Z" fill="white"/>
<path d="M43.3226 64.9719H40.7742V73.8913H43.3226V64.9719Z" fill="white"/>
<path d="M43.3226 76.4396H40.7742V78.988H43.3226V76.4396Z" fill="white"/>
<path d="M33.1291 64.9719H30.5807V73.8913H33.1291V64.9719Z" fill="white"/>
<path d="M33.1291 76.4396H30.5807V78.988H33.1291V76.4396Z" fill="white"/>
<path d="M38.2258 64.9719H35.6774V73.8913H38.2258V64.9719Z" fill="white"/>
<path d="M38.2258 76.4396H35.6774V78.988H38.2258V76.4396Z" fill="white"/>
<path d="M63.7097 38.2139H58.6129V40.7623H63.7097V38.2139Z" fill="white"/>
<path d="M68.8064 38.2139H66.2581V40.7623H68.8064V38.2139Z" fill="white"/>
<path d="M63.7097 43.3105H58.6129V45.8589H63.7097V43.3105Z" fill="white"/>
<path d="M68.8064 43.3105H66.2581V45.8589H68.8064V43.3105Z" fill="white"/>
<path d="M63.7097 53.5042H58.6129V56.0525H63.7097V53.5042Z" fill="white"/>
<path d="M68.8064 53.5042H66.2581V56.0525H68.8064V53.5042Z" fill="white"/>
<path d="M63.7097 48.4073H58.6129V50.9557H63.7097V48.4073Z" fill="white"/>
<path d="M68.8064 48.4073H66.2581V50.9557H68.8064V48.4073Z" fill="white"/>
<path d="M50.9677 45.859H48.4193V48.4074H50.9677V45.859Z" fill="white"/>
<path d="M30.5806 45.859H28.0322V48.4074H30.5806V45.859Z" fill="white"/>
</g>
<defs>
<clipPath id="clip0_1_41">
<rect width="79" height="79" fill="white"/>
</clipPath>
</defs>
</svg>
