<svg width="273" height="82" viewBox="0 0 273 82" fill="none" xmlns="http://www.w3.org/2000/svg">
<path d="M165.952 27.424C165.12 27.424 164.416 27.136 163.84 26.56C163.264 25.984 162.976 25.28 162.976 24.448C162.976 23.616 163.264 22.912 163.84 22.336C164.416 21.76 165.12 21.472 165.952 21.472C166.752 21.472 167.424 21.76 167.968 22.336C168.544 22.912 168.832 23.616 168.832 24.448C168.832 25.28 168.544 25.984 167.968 26.56C167.424 27.136 166.752 27.424 165.952 27.424ZM168.064 31.696V58H163.696V31.696H168.064ZM188.565 31.216C190.549 31.216 192.341 31.648 193.941 32.512C195.541 33.344 196.789 34.608 197.685 36.304C198.613 38 199.077 40.064 199.077 42.496V58H194.757V43.12C194.757 40.496 194.101 38.496 192.789 37.12C191.477 35.712 189.685 35.008 187.413 35.008C185.109 35.008 183.269 35.728 181.893 37.168C180.549 38.608 179.877 40.704 179.877 43.456V58H175.509V22.48H179.877V35.44C180.741 34.096 181.925 33.056 183.429 32.32C184.965 31.584 186.677 31.216 188.565 31.216ZM229.54 31.696V58H225.172V54.112C224.34 55.456 223.172 56.512 221.668 57.28C220.196 58.016 218.564 58.384 216.772 58.384C214.724 58.384 212.884 57.968 211.252 57.136C209.62 56.272 208.324 54.992 207.364 53.296C206.436 51.6 205.972 49.536 205.972 47.104V31.696H210.292V46.528C210.292 49.12 210.948 51.12 212.26 52.528C213.572 53.904 215.364 54.592 217.636 54.592C219.972 54.592 221.812 53.872 223.156 52.432C224.5 50.992 225.172 48.896 225.172 46.144V31.696H229.54ZM241.283 36.592C242.179 35.024 243.491 33.744 245.219 32.752C246.947 31.76 248.915 31.264 251.123 31.264C253.491 31.264 255.619 31.824 257.507 32.944C259.395 34.064 260.883 35.648 261.971 37.696C263.059 39.712 263.603 42.064 263.603 44.752C263.603 47.408 263.059 49.776 261.971 51.856C260.883 53.936 259.379 55.552 257.459 56.704C255.571 57.856 253.459 58.432 251.123 58.432C248.851 58.432 246.851 57.936 245.123 56.944C243.427 55.952 242.147 54.688 241.283 53.152V58H236.915V22.48H241.283V36.592ZM259.139 44.752C259.139 42.768 258.739 41.04 257.939 39.568C257.139 38.096 256.051 36.976 254.675 36.208C253.331 35.44 251.843 35.056 250.211 35.056C248.611 35.056 247.123 35.456 245.747 36.256C244.403 37.024 243.315 38.16 242.483 39.664C241.683 41.136 241.283 42.848 241.283 44.8C241.283 46.784 241.683 48.528 242.483 50.032C243.315 51.504 244.403 52.64 245.747 53.44C247.123 54.208 248.611 54.592 250.211 54.592C251.843 54.592 253.331 54.208 254.675 53.44C256.051 52.64 257.139 51.504 257.939 50.032C258.739 48.528 259.139 46.768 259.139 44.752Z" fill="white"/>
<path d="M18.1406 57H10.9219V27.6562C10.9219 25.5625 11.8281 23.8906 13.6406 22.6406C14.8594 21.7969 16.2188 21.375 17.7188 21.375H28.3594V27.5625H18.1406V57ZM12.2812 21.375L8.4375 27.5625H1.35938V21.375H12.2812ZM40.0312 42.4688V50.8125H58.4062L61.7812 57H39.6094C37.3281 57 35.5 56.1406 34.125 54.4219C33.25 53.2969 32.8125 52.0625 32.8125 50.7188V27.6562C32.8125 25.5625 33.7188 23.8906 35.5312 22.6406C36.75 21.7969 38.1094 21.375 39.6094 21.375H61.7812L58.4062 27.5625H40.0312V36.2812H56.9531V42.4688H40.0312Z" fill="white"/>
<g filter="url(#filter0_i_98_17)">
<path d="M110.446 73V39.4457M88.2511 64.6115C81.2848 58.4631 76.8913 49.4675 76.8913 39.4457C76.8913 20.914 91.914 5.8913 110.446 5.8913C128.977 5.8913 144 20.914 144 39.4457C144 49.4675 139.606 58.4631 132.64 64.6115" stroke="url(#paint0_linear_98_17)" stroke-width="11" stroke-linecap="round" stroke-linejoin="round"/>
</g>
<defs>
<filter id="filter0_i_98_17" x="71.3914" y="0.391296" width="82.1086" height="82.1087" filterUnits="userSpaceOnUse" color-interpolation-filters="sRGB">
<feFlood flood-opacity="0" result="BackgroundImageFix"/>
<feBlend mode="normal" in="SourceGraphic" in2="BackgroundImageFix" result="shape"/>
<feColorMatrix in="SourceAlpha" type="matrix" values="0 0 0 0 0 0 0 0 0 0 0 0 0 0 0 0 0 0 127 0" result="hardAlpha"/>
<feOffset dx="5" dy="5"/>
<feGaussianBlur stdDeviation="2"/>
<feComposite in2="hardAlpha" operator="arithmetic" k2="-1" k3="1"/>
<feColorMatrix type="matrix" values="0 0 0 0 0 0 0 0 0 0 0 0 0 0 0 0 0 0 0.45 0"/>
<feBlend mode="normal" in2="shape" result="effect1_innerShadow_98_17"/>
</filter>
<linearGradient id="paint0_linear_98_17" x1="147.196" y1="36.25" x2="72.0978" y2="37.8478" gradientUnits="userSpaceOnUse">
<stop stop-color="#D78EFC"/>
<stop offset="0.53125" stop-color="#A6B7FD"/>
<stop offset="1" stop-color="#88D1FF"/>
</linearGradient>
</defs>
</svg>
