<svg width="263" height="82" viewBox="0 0 263 82" fill="none" xmlns="http://www.w3.org/2000/svg">
<path d="M155.952 27.424C155.12 27.424 154.416 27.136 153.84 26.56C153.264 25.984 152.976 25.28 152.976 24.448C152.976 23.616 153.264 22.912 153.84 22.336C154.416 21.76 155.12 21.472 155.952 21.472C156.752 21.472 157.424 21.76 157.968 22.336C158.544 22.912 158.832 23.616 158.832 24.448C158.832 25.28 158.544 25.984 157.968 26.56C157.424 27.136 156.752 27.424 155.952 27.424ZM158.064 31.696V58H153.696V31.696H158.064ZM178.565 31.216C180.549 31.216 182.341 31.648 183.941 32.512C185.541 33.344 186.789 34.608 187.685 36.304C188.613 38 189.077 40.064 189.077 42.496V58H184.757V43.12C184.757 40.496 184.101 38.496 182.789 37.12C181.477 35.712 179.685 35.008 177.413 35.008C175.109 35.008 173.269 35.728 171.893 37.168C170.549 38.608 169.877 40.704 169.877 43.456V58H165.509V22.48H169.877V35.44C170.741 34.096 171.925 33.056 173.429 32.32C174.965 31.584 176.677 31.216 178.565 31.216ZM219.54 31.696V58H215.172V54.112C214.34 55.456 213.172 56.512 211.668 57.28C210.196 58.016 208.564 58.384 206.772 58.384C204.724 58.384 202.884 57.968 201.252 57.136C199.62 56.272 198.324 54.992 197.364 53.296C196.436 51.6 195.972 49.536 195.972 47.104V31.696H200.292V46.528C200.292 49.12 200.948 51.12 202.26 52.528C203.572 53.904 205.364 54.592 207.636 54.592C209.972 54.592 211.812 53.872 213.156 52.432C214.5 50.992 215.172 48.896 215.172 46.144V31.696H219.54ZM231.283 36.592C232.179 35.024 233.491 33.744 235.219 32.752C236.947 31.76 238.915 31.264 241.123 31.264C243.491 31.264 245.619 31.824 247.507 32.944C249.395 34.064 250.883 35.648 251.971 37.696C253.059 39.712 253.603 42.064 253.603 44.752C253.603 47.408 253.059 49.776 251.971 51.856C250.883 53.936 249.379 55.552 247.459 56.704C245.571 57.856 243.459 58.432 241.123 58.432C238.851 58.432 236.851 57.936 235.123 56.944C233.427 55.952 232.147 54.688 231.283 53.152V58H226.915V22.48H231.283V36.592ZM249.139 44.752C249.139 42.768 248.739 41.04 247.939 39.568C247.139 38.096 246.051 36.976 244.675 36.208C243.331 35.44 241.843 35.056 240.211 35.056C238.611 35.056 237.123 35.456 235.747 36.256C234.403 37.024 233.315 38.16 232.483 39.664C231.683 41.136 231.283 42.848 231.283 44.8C231.283 46.784 231.683 48.528 232.483 50.032C233.315 51.504 234.403 52.64 235.747 53.44C237.123 54.208 238.611 54.592 240.211 54.592C241.843 54.592 243.331 54.208 244.675 53.44C246.051 52.64 247.139 51.504 247.939 50.032C248.739 48.528 249.139 46.768 249.139 44.752Z" fill="white"/>
<path d="M18.1406 57H10.9219V27.6562C10.9219 25.5625 11.8281 23.8906 13.6406 22.6406C14.8594 21.7969 16.2188 21.375 17.7188 21.375H28.3594V27.5625H18.1406V57ZM12.2812 21.375L8.4375 27.5625H1.35938V21.375H12.2812ZM40.0312 42.4688V50.8125H58.4062L61.7812 57H39.6094C37.3281 57 35.5 56.1406 34.125 54.4219C33.25 53.2969 32.8125 52.0625 32.8125 50.7188V27.6562C32.8125 25.5625 33.7188 23.8906 35.5312 22.6406C36.75 21.7969 38.1094 21.375 39.6094 21.375H61.7812L58.4062 27.5625H40.0312V36.2812H56.9531V42.4688H40.0312Z" fill="white"/>
<g filter="url(#filter0_i_98_17)">
<path d="M110.446 73V39.4457M88.2511 64.6115C81.2848 58.4631 76.8913 49.4675 76.8913 39.4457C76.8913 20.914 91.914 5.8913 110.446 5.8913C128.977 5.8913 144 20.914 144 39.4457C144 49.4675 139.606 58.4631 132.64 64.6115" stroke="url(#paint0_linear_98_17)" stroke-width="11" stroke-linecap="round" stroke-linejoin="round"/>
</g>
<defs>
<filter id="filter0_i_98_17" x="71.3914" y="0.391296" width="82.1086" height="82.1087" filterUnits="userSpaceOnUse" color-interpolation-filters="sRGB">
<feFlood flood-opacity="0" result="BackgroundImageFix"/>
<feBlend mode="normal" in="SourceGraphic" in2="BackgroundImageFix" result="shape"/>
<feColorMatrix in="SourceAlpha" type="matrix" values="0 0 0 0 0 0 0 0 0 0 0 0 0 0 0 0 0 0 127 0" result="hardAlpha"/>
<feOffset dx="5" dy="5"/>
<feGaussianBlur stdDeviation="2"/>
<feComposite in2="hardAlpha" operator="arithmetic" k2="-1" k3="1"/>
<feColorMatrix type="matrix" values="0 0 0 0 0 0 0 0 0 0 0 0 0 0 0 0 0 0 0.45 0"/>
<feBlend mode="normal" in2="shape" result="effect1_innerShadow_98_17"/>
</filter>
<linearGradient id="paint0_linear_98_17" x1="147.196" y1="36.25" x2="72.0978" y2="37.8478" gradientUnits="userSpaceOnUse">
<stop stop-color="#D78EFC"/>
<stop offset="0.53125" stop-color="#A6B7FD"/>
<stop offset="1" stop-color="#88D1FF"/>
</linearGradient>
</defs>
</svg>
